<svg width="195" height="34" viewBox="0 0 195 34" fill="none" xmlns="http://www.w3.org/2000/svg">
<path d="M8.918 7.164H2.132V25H8.918C14.014 25 17.524 21.698 17.524 16.082C17.524 10.466 14.014 7.164 8.918 7.164ZM8.918 22.348L5.304 22.322V9.842H8.918C12.09 9.842 14.326 12 14.326 16.082C14.326 20.164 12.09 22.348 8.918 22.348ZM31.5847 18.708C31.5847 14.73 29.4007 12.13 25.6307 12.13C21.9907 12.13 19.3387 14.808 19.3387 18.656C19.3387 22.426 21.7047 25.13 25.6047 25.13C29.3227 25.13 31.0907 23.076 31.5327 20.84H28.5427C28.3347 21.62 27.6327 22.608 25.7347 22.608C23.9147 22.608 22.6927 21.438 22.4587 19.358H31.5847V18.708ZM25.6567 14.574C27.2427 14.574 28.3087 15.458 28.5687 17.408H22.5107C22.8487 15.536 24.0707 14.574 25.6567 14.574ZM46.0381 22.322C45.7521 22.426 45.5961 22.452 45.3881 22.452C44.9981 22.452 44.7381 22.166 44.7381 21.672V17.2C44.7381 14.028 42.7881 12.13 39.1741 12.13C35.9241 12.13 33.7141 13.716 33.5061 16.576H36.4181C36.5481 15.328 37.4841 14.6 38.9921 14.6C40.7601 14.6 41.6441 15.536 41.6441 17.018V17.668H39.6681C36.1841 17.668 33.1941 18.656 33.1941 21.672C33.1941 23.726 34.6761 25.13 37.5101 25.13C40.2401 25.13 41.3581 23.83 41.7741 23.05C42.1381 24.428 43.1521 25.13 44.5301 25.13C45.1801 25.13 45.7521 25.026 46.2461 24.896L46.0381 22.322ZM38.3421 22.764C36.9381 22.764 36.2881 22.244 36.2881 21.334C36.2881 20.138 37.4321 19.514 39.5121 19.514H41.6441V20.346C41.6441 21.438 40.4221 22.764 38.3421 22.764ZM55.6833 22.166C55.1893 22.374 54.6693 22.452 54.0973 22.452C52.3293 22.452 51.7313 21.594 51.7313 20.346V14.808H55.6053V12.26H51.7313V8.594H48.7413V12.26H46.6613V14.834H48.5593V20.424C48.5593 23.258 50.4053 25.13 53.6293 25.13C54.5393 25.13 55.3453 24.974 55.7873 24.792L55.6833 22.166ZM64.8267 12.13C62.8767 12.13 61.5767 12.962 60.8227 14.132V6.54H57.7027V25H60.8747V17.772C60.8747 16.004 61.9927 14.86 63.7347 14.86C65.3207 14.86 66.1527 15.9 66.1527 17.564V25H69.3507V16.784C69.3507 14.132 67.7127 12.13 64.8267 12.13ZM78.743 12.13C77.105 12.13 76.065 13.04 75.441 14.314L75.389 12.26H72.347V25H75.519V18.188C75.727 16.264 77.053 15.198 78.613 15.198C79.107 15.198 79.315 15.25 79.497 15.328L79.523 12.208C79.367 12.182 79.055 12.13 78.743 12.13ZM86.8467 12.13C82.9727 12.13 80.3727 14.886 80.3727 18.734C80.3727 22.556 82.9727 25.13 86.8467 25.13C90.7467 25.13 93.3207 22.426 93.3207 18.604C93.3207 14.73 90.7467 12.13 86.8467 12.13ZM86.8467 14.756C88.8487 14.756 90.0967 16.342 90.0967 18.656C90.0967 20.944 88.8487 22.504 86.8467 22.504C84.8707 22.504 83.5967 20.944 83.5967 18.656C83.5967 16.342 84.8707 14.756 86.8467 14.756ZM101.18 25.13C104.846 25.13 106.744 22.972 107.082 20.19H103.962C103.728 21.464 103 22.504 101.31 22.504C99.3856 22.504 98.2156 21.074 98.2156 18.63C98.2156 16.186 99.4636 14.756 101.336 14.756C102.948 14.756 103.728 15.822 103.962 17.148H107.082C106.77 14.288 104.898 12.13 101.258 12.13C97.5916 12.13 94.9916 14.834 94.9916 18.682C94.9916 22.452 97.3316 25.13 101.18 25.13ZM118.006 25H121.62L116.368 17.538L121.126 12.26H117.33L112.52 17.772V6.54H109.348V25H112.52V21.776L114.34 19.774L118.006 25Z" fill="#181818"/>
<path d="M128.068 15.666C128.068 14.34 129.238 13.586 131.11 13.586C132.878 13.586 134.074 14.366 134.152 15.9H135.608C135.556 13.56 133.918 12.234 131.136 12.234C128.328 12.234 126.508 13.56 126.508 15.666C126.508 20.554 134.256 18.11 134.256 21.646C134.256 22.946 133.086 23.752 131.006 23.752C128.822 23.752 127.678 22.868 127.6 21.386H126.144C126.17 23.778 127.886 25.13 131.006 25.13C133.944 25.13 135.816 23.752 135.816 21.646C135.816 16.524 128.068 19.124 128.068 15.666ZM145.41 23.388C144.864 23.622 144.24 23.752 143.616 23.752C141.536 23.752 140.782 22.712 140.782 21.074V13.69H145.176V12.364H140.782V8.516H139.3V12.364H137.246V13.742H139.222V21.074C139.222 23.648 140.756 25.13 143.46 25.13C144.266 25.13 145.02 25 145.488 24.766L145.41 23.388ZM156.136 12.364V20.008C156.136 22.01 154.68 23.752 152.392 23.752C150.312 23.752 149.064 22.426 149.064 20.242V12.364H147.478V20.476C147.478 23.31 149.194 25.13 151.976 25.13C153.952 25.13 155.382 24.142 156.162 22.79L156.24 25H157.722V12.364H156.136ZM171.135 6.67V14.782C170.355 13.248 168.847 12.234 166.637 12.234C163.153 12.234 160.787 14.938 160.787 18.812C160.787 22.66 163.127 25.13 166.481 25.13C168.691 25.13 170.329 24.012 171.135 22.426L171.161 25H172.695V6.67H171.135ZM166.637 23.752C164.115 23.752 162.399 21.828 162.399 18.786C162.399 15.718 164.141 13.586 166.715 13.586C169.471 13.586 171.135 15.822 171.135 18.214V19.15C171.135 21.49 169.393 23.752 166.637 23.752ZM178.647 8.204C178.647 7.502 178.101 6.982 177.425 6.982C176.749 6.982 176.203 7.502 176.203 8.204C176.203 8.906 176.749 9.426 177.425 9.426C178.101 9.426 178.647 8.906 178.647 8.204ZM176.593 25H178.179V12.364H176.593V25ZM187.298 12.234C183.684 12.234 181.24 14.912 181.24 18.76C181.24 22.608 183.684 25.13 187.298 25.13C190.964 25.13 193.382 22.504 193.382 18.656C193.382 14.808 190.964 12.234 187.298 12.234ZM187.298 13.586C190.002 13.586 191.77 15.666 191.77 18.708C191.77 21.724 190.002 23.752 187.298 23.752C184.646 23.752 182.852 21.724 182.852 18.708C182.852 15.666 184.646 13.586 187.298 13.586Z" fill="#ACACAC"/>
</svg>
