<svg width="53" height="54" viewBox="0 0 53 54" fill="none" xmlns="http://www.w3.org/2000/svg">
<circle cx="26.5" cy="27.0001" r="26.5" fill="white"/>
<path d="M37 25.0001C37 19.2146 32.2855 14.5001 26.5 14.5001C20.7145 14.5001 16 19.2146 16 25.0001C16 26.5331 16.3465 28.0451 16.987 29.4311C16.483 31.0901 16.84 32.9591 18.058 34.3136C19.024 35.3951 20.41 36.0146 21.859 36.0146H22.132V37.7786C22.132 38.7761 22.951 39.5951 23.9485 39.5951H29.0515C30.049 39.5951 30.868 38.7761 30.868 37.7786V36.0146H31.0675C32.569 36.0146 33.997 35.3741 34.9945 34.2506C36.244 32.8541 36.622 30.9536 36.1075 29.2316C36.6955 27.8876 37 26.4701 37 25.0001ZM22.825 32.2976C21.376 32.2976 20.2 31.1216 20.2 29.6726C20.2 28.2236 21.376 27.0476 22.825 27.0476C24.274 27.0476 25.45 28.2236 25.45 29.6726C25.45 31.1216 24.274 32.2976 22.825 32.2976ZM26.5 35.3111C25.0405 35.3111 24.925 34.3136 24.925 33.9986C24.925 33.2741 25.471 31.8986 26.5 31.8986C27.529 31.8986 28.075 33.2741 28.075 33.9986C28.075 34.3136 27.9595 35.3111 26.5 35.3111ZM30.175 32.3186C28.726 32.3186 27.55 31.1426 27.55 29.6936C27.55 28.2446 28.726 27.0686 30.175 27.0686C31.624 27.0686 32.8 28.2446 32.8 29.6936C32.8 31.1426 31.624 32.3186 30.175 32.3186Z" fill="#181818"/>
</svg>
