<svg width="53" height="53" viewBox="0 0 53 53" fill="none" xmlns="http://www.w3.org/2000/svg">
<circle cx="26.5" cy="26.5" r="26.5" fill="#181818"/>
<path d="M38.2678 24.1339C38.2678 17.4481 32.8197 12 26.1339 12C19.4481 12 14 17.4481 14 24.1339C14 25.9054 14.4004 27.6527 15.1406 29.2544C14.5582 31.1715 14.9707 33.3314 16.3782 34.8967C17.4946 36.1464 19.0962 36.8623 20.7707 36.8623H21.0862V38.9008C21.0862 40.0536 22.0326 41 23.1854 41H29.0824C30.2351 41 31.1816 40.0536 31.1816 38.9008V36.8623H31.4121C33.1473 36.8623 34.7975 36.1222 35.9502 34.8238C37.3941 33.21 37.831 31.0138 37.2364 29.0238C37.9159 27.4707 38.2678 25.8326 38.2678 24.1339ZM21.887 32.5669C20.2126 32.5669 18.8536 31.208 18.8536 29.5335C18.8536 27.859 20.2126 26.5 21.887 26.5C23.5615 26.5 24.9205 27.859 24.9205 29.5335C24.9205 31.208 23.5615 32.5669 21.887 32.5669ZM26.1339 36.0494C24.4473 36.0494 24.3138 34.8967 24.3138 34.5326C24.3138 33.6954 24.9448 32.1059 26.1339 32.1059C27.323 32.1059 27.954 33.6954 27.954 34.5326C27.954 34.8967 27.8205 36.0494 26.1339 36.0494ZM30.3808 32.5912C28.7063 32.5912 27.3473 31.2322 27.3473 29.5577C27.3473 27.8833 28.7063 26.5243 30.3808 26.5243C32.0552 26.5243 33.4142 27.8833 33.4142 29.5577C33.4142 31.2322 32.0552 32.5912 30.3808 32.5912Z" fill="white"/>
</svg>
