<svg width="109" height="74" viewBox="0 0 109 74" fill="none" xmlns="http://www.w3.org/2000/svg">
<path d="M0.384 1.576L5.376 73H23.712L28.8 1.576H17.088L15.072 64.744H14.112L12.096 1.576L0.384 1.576ZM65.9648 73V62.248H52.3328V60.328C52.3328 59.56 52.3328 58.984 52.7168 58.312L65.1008 32.68C67.0208 29.224 66.8288 27.784 66.8288 23.176V9.928C66.8288 3.88 63.6608 0.423996 57.4208 0.423996L48.2048 0.423996C43.8848 0.423996 41.0048 3.88 41.0048 9.16V24.136H52.4288V11.368C52.4288 10.6 52.9088 10.12 53.6768 10.12H54.2528C55.0208 10.12 55.5008 10.6 55.5008 11.368V25.096C55.5008 25.864 55.4048 26.536 55.1168 27.304L43.3088 51.88C41.3888 55.24 41.0048 56.968 41.0048 61.384V73L65.9648 73ZM80.0558 70.984C80.2478 70.024 80.2478 68.968 80.2478 68.008C80.2478 67.048 80.2478 65.992 80.0558 64.936C79.8638 63.592 79.0958 62.824 77.7518 62.632C76.8878 62.44 75.9278 62.44 75.0638 62.44C74.1038 62.44 73.0478 62.44 72.0878 62.632C70.8398 62.824 70.0718 63.592 69.8798 65.032C69.6878 65.992 69.6878 67.048 69.6878 68.008C69.6878 68.968 69.6878 70.024 69.8798 70.984C70.0718 72.328 70.8398 73.192 72.1838 73.384C73.0478 73.576 74.1038 73.576 75.0638 73.576C75.9278 73.576 76.8878 73.576 77.8478 73.384C79.0958 73.192 79.8638 72.328 80.0558 70.984ZM97.128 0.519995H93.768C85.512 0.519995 82.536 3.4 82.536 10.6L82.536 63.88C82.536 71.08 85.512 73.96 93.768 73.96H97.128C105.48 73.96 108.36 70.984 108.36 63.88L108.36 10.6C108.36 3.4 105.48 0.519995 97.128 0.519995ZM93.96 63.016L93.96 11.464C93.96 10.6 94.44 10.216 95.208 10.216H95.784C96.552 10.216 97.032 10.696 97.032 11.464L97.032 63.016C97.032 63.784 96.552 64.264 95.784 64.264H95.208C94.44 64.264 93.96 63.784 93.96 63.016Z" fill="#FFD600"/>
</svg>
