<svg width="61" height="61" viewBox="0 0 61 61" fill="none" xmlns="http://www.w3.org/2000/svg">
<g id="vinyl 1" clip-path="url(#clip0_201_3296)">
<g id="Group">
<g id="Group_2">
<g id="Group_3">
<path id="Vector" d="M30.5 0C13.6826 0 0 13.6826 0 30.5C0 47.3174 13.6826 61 30.5 61C47.3174 61 61 47.3174 61 30.5C61 13.6826 47.3174 0 30.5 0ZM42.182 40.385C42.6784 40.8814 42.6784 41.6856 42.182 42.182C39.0619 45.302 34.9132 47.0209 30.5 47.0209C29.7975 47.0209 29.2291 46.4525 29.2291 45.75C29.2291 45.0475 29.7975 44.4791 30.5 44.4791C34.2343 44.4791 37.744 43.0247 40.385 40.3849C40.8813 39.8885 41.6855 39.8885 42.182 40.385ZM14.4446 15.4771C14.1158 15.4771 13.7881 15.3504 13.5399 15.0986C13.0472 14.5984 13.0521 13.793 13.5522 13.3016C18.0995 8.82141 24.1186 6.35413 30.5 6.35413C31.2025 6.35413 31.7709 6.92255 31.7709 7.625C31.7709 8.32745 31.2025 8.89587 30.5 8.89587C24.7899 8.89587 19.405 11.1037 15.3369 15.1111C15.0887 15.3554 14.7672 15.4771 14.4446 15.4771ZM18.818 20.615C18.3216 20.1186 18.3216 19.3144 18.818 18.818C21.9381 15.698 26.0868 13.9791 30.5 13.9791C31.2025 13.9791 31.7709 14.5475 31.7709 15.25C31.7709 15.9525 31.2025 16.5209 30.5 16.5209C26.7657 16.5209 23.256 17.9753 20.615 20.6151C20.3669 20.8633 20.0416 20.9875 19.7165 20.9875C19.3913 20.9873 19.0662 20.8633 18.818 20.615ZM20.3334 30.5C20.3334 24.8942 24.8942 20.3334 30.5 20.3334C36.1058 20.3334 40.6666 24.8942 40.6666 30.5C40.6666 36.1058 36.1058 40.6666 30.5 40.6666C24.8942 40.6666 20.3334 36.1058 20.3334 30.5ZM47.5731 47.5731C43.0135 52.1339 36.9497 54.6459 30.5 54.6459C29.7975 54.6459 29.2291 54.0775 29.2291 53.375C29.2291 52.6725 29.7975 52.1041 30.5 52.1041C36.2709 52.1041 41.6967 49.8565 45.7761 45.776C46.2725 45.2795 47.0768 45.2795 47.5731 45.776C48.0695 46.2724 48.0695 47.0766 47.5731 47.5731Z" fill="#FFD600"/>
<path id="Vector_2" d="M30.5001 33.0416C31.9038 33.0416 33.0417 31.9037 33.0417 30.5C33.0417 29.0963 31.9038 27.9584 30.5001 27.9584C29.0964 27.9584 27.9585 29.0963 27.9585 30.5C27.9585 31.9037 29.0964 33.0416 30.5001 33.0416Z" fill="#FFD600"/>
</g>
</g>
</g>
</g>
<defs>
<clipPath id="clip0_201_3296">
<rect width="61" height="61" fill="white"/>
</clipPath>
</defs>
</svg>
