<svg width="44" height="51" viewBox="0 0 44 51" fill="none" xmlns="http://www.w3.org/2000/svg">
<g id="Group">
<path id="Vector" d="M43.1318 21.316C43.1318 9.57096 33.561 0.00012207 21.8159 0.00012207C10.0708 0.00012207 0.5 9.57096 0.5 21.316C0.5 24.4281 1.20342 27.4976 2.50369 30.3113C1.48053 33.6792 2.20527 37.4735 4.67792 40.2232C6.63898 42.4188 9.45268 43.6764 12.3943 43.6764H12.9485V47.2575C12.9485 49.2825 14.6111 50.9451 16.6361 50.9451H26.9957C29.0207 50.9451 30.6833 49.2825 30.6833 47.2575V43.6764H31.0883C34.1365 43.6764 37.0354 42.3761 39.0605 40.0953C41.5971 37.2603 42.3644 33.4021 41.3199 29.9063C42.5136 27.1779 43.1318 24.3002 43.1318 21.316ZM14.3553 36.1306C11.4137 36.1306 9.02636 33.7432 9.02636 30.8016C9.02636 27.86 11.4137 25.4726 14.3553 25.4726C17.2969 25.4726 19.6843 27.86 19.6843 30.8016C19.6843 33.7432 17.2969 36.1306 14.3553 36.1306ZM21.8159 42.2482C18.853 42.2482 18.6185 40.2232 18.6185 39.5837C18.6185 38.1129 19.7269 35.3206 21.8159 35.3206C23.9049 35.3206 25.0133 38.1129 25.0133 39.5837C25.0133 40.2232 24.7788 42.2482 21.8159 42.2482ZM29.2765 36.1732C26.3349 36.1732 23.9475 33.7858 23.9475 30.8442C23.9475 27.9026 26.3349 25.5153 29.2765 25.5153C32.2181 25.5153 34.6054 27.9026 34.6054 30.8442C34.6054 33.7858 32.2181 36.1732 29.2765 36.1732Z" fill="#FFD600"/>
</g>
</svg>
